<mxfile host="app.diagrams.net" agent="Mozilla/5.0 (Windows NT 10.0; Win64; x64) AppleWebKit/537.36 (KHTML, like Gecko) Chrome/133.0.0.0 Safari/537.36 Edg/133.0.0.0" version="26.2.12">
  <diagram name="Page-1" id="tswjlwcBb6ZSOqtVrs0l">
    <mxGraphModel dx="1420" dy="794" grid="1" gridSize="10" guides="1" tooltips="1" connect="1" arrows="1" fold="1" page="1" pageScale="1" pageWidth="850" pageHeight="1100" math="0" shadow="0">
      <root>
        <mxCell id="0" />
        <mxCell id="1" parent="0" />
        <mxCell id="7RACUwOKpZIxq9s_oli3-1" value="" style="rounded=0;whiteSpace=wrap;html=1;fillColor=#60a917;fontColor=#ffffff;strokeColor=#2D7600;" vertex="1" parent="1">
          <mxGeometry width="850" height="1310" as="geometry" />
        </mxCell>
        <mxCell id="7RACUwOKpZIxq9s_oli3-2" value="" style="verticalLabelPosition=bottom;verticalAlign=top;html=1;shape=mxgraph.basic.rect;fillColor2=none;strokeWidth=1;size=20;indent=5;" vertex="1" parent="1">
          <mxGeometry x="30" y="730" width="790" height="180" as="geometry" />
        </mxCell>
        <mxCell id="7RACUwOKpZIxq9s_oli3-3" value="" style="verticalLabelPosition=bottom;verticalAlign=top;html=1;shape=mxgraph.basic.rect;fillColor2=none;strokeWidth=1;size=20;indent=5;" vertex="1" parent="1">
          <mxGeometry x="30" y="530" width="790" height="180" as="geometry" />
        </mxCell>
        <mxCell id="7RACUwOKpZIxq9s_oli3-4" value="" style="rounded=0;whiteSpace=wrap;html=1;fillColor=light-dark(#A20025,#4D4247);fontColor=#ffffff;strokeColor=#6F0000;" vertex="1" parent="1">
          <mxGeometry x="10" y="10" width="830" height="110" as="geometry" />
        </mxCell>
        <mxCell id="7RACUwOKpZIxq9s_oli3-5" value="" style="verticalLabelPosition=bottom;shadow=0;dashed=0;align=center;html=1;verticalAlign=top;strokeWidth=1;shape=mxgraph.mockup.graphics.simpleIcon;strokeColor=#999999;" vertex="1" parent="1">
          <mxGeometry x="70" y="21.25" width="100" height="87.5" as="geometry" />
        </mxCell>
        <mxCell id="7RACUwOKpZIxq9s_oli3-6" value="" style="swimlane;shape=mxgraph.bootstrap.anchor;strokeColor=#999999;fillColor=#ffffff;fontColor=#666666;childLayout=stackLayout;horizontal=0;startSize=0;horizontalStack=1;resizeParent=1;resizeParentMax=0;resizeLast=0;collapsible=0;marginBottom=0;whiteSpace=wrap;html=1;" vertex="1" parent="1">
          <mxGeometry x="240" y="50" width="560" height="30" as="geometry" />
        </mxCell>
        <mxCell id="7RACUwOKpZIxq9s_oli3-7" value="Home" style="text;strokeColor=inherit;align=center;verticalAlign=middle;spacingLeft=10;spacingRight=10;overflow=hidden;points=[[0,0.5],[1,0.5]];portConstraint=eastwest;rotatable=0;whiteSpace=wrap;html=1;fillColor=inherit;fontColor=inherit;fontSize=17;" vertex="1" parent="7RACUwOKpZIxq9s_oli3-6">
          <mxGeometry width="140" height="30" as="geometry" />
        </mxCell>
        <mxCell id="7RACUwOKpZIxq9s_oli3-8" value="About Us" style="text;strokeColor=inherit;align=center;verticalAlign=middle;spacingLeft=10;spacingRight=10;overflow=hidden;points=[[0,0.5],[1,0.5]];portConstraint=eastwest;rotatable=0;whiteSpace=wrap;html=1;fillColor=inherit;fontColor=inherit;fontSize=17;" vertex="1" parent="7RACUwOKpZIxq9s_oli3-6">
          <mxGeometry x="140" width="140" height="30" as="geometry" />
        </mxCell>
        <mxCell id="7RACUwOKpZIxq9s_oli3-9" value="Trips" style="text;strokeColor=inherit;align=center;verticalAlign=middle;spacingLeft=10;spacingRight=10;overflow=hidden;points=[[0,0.5],[1,0.5]];portConstraint=eastwest;rotatable=0;whiteSpace=wrap;html=1;fillColor=inherit;fontColor=inherit;fontSize=17;" vertex="1" parent="7RACUwOKpZIxq9s_oli3-6">
          <mxGeometry x="280" width="140" height="30" as="geometry" />
        </mxCell>
        <mxCell id="7RACUwOKpZIxq9s_oli3-10" value="Contact Us" style="text;strokeColor=inherit;align=center;verticalAlign=middle;spacingLeft=10;spacingRight=10;overflow=hidden;points=[[0,0.5],[1,0.5]];portConstraint=eastwest;rotatable=0;whiteSpace=wrap;html=1;fillColor=inherit;fontColor=inherit;fontSize=17;" vertex="1" parent="7RACUwOKpZIxq9s_oli3-6">
          <mxGeometry x="420" width="140" height="30" as="geometry" />
        </mxCell>
        <mxCell id="7RACUwOKpZIxq9s_oli3-11" value="" style="rounded=0;whiteSpace=wrap;html=1;fillColor=light-dark(#A20025,#4D4247);fontColor=#ffffff;strokeColor=#6F0000;" vertex="1" parent="1">
          <mxGeometry x="10.5" y="1230" width="830" height="70" as="geometry" />
        </mxCell>
        <mxCell id="7RACUwOKpZIxq9s_oli3-12" value="" style="verticalLabelPosition=bottom;shadow=0;dashed=0;align=center;html=1;verticalAlign=top;strokeWidth=1;shape=mxgraph.mockup.graphics.simpleIcon;strokeColor=#999999;" vertex="1" parent="1">
          <mxGeometry x="750.5" y="1240" width="50" height="50" as="geometry" />
        </mxCell>
        <mxCell id="7RACUwOKpZIxq9s_oli3-13" value="" style="verticalLabelPosition=bottom;shadow=0;dashed=0;align=center;html=1;verticalAlign=top;strokeWidth=1;shape=mxgraph.mockup.graphics.simpleIcon;strokeColor=#999999;" vertex="1" parent="1">
          <mxGeometry x="690.5" y="1240" width="50" height="50" as="geometry" />
        </mxCell>
        <mxCell id="7RACUwOKpZIxq9s_oli3-14" value="" style="verticalLabelPosition=bottom;shadow=0;dashed=0;align=center;html=1;verticalAlign=top;strokeWidth=1;shape=mxgraph.mockup.graphics.simpleIcon;strokeColor=#999999;" vertex="1" parent="1">
          <mxGeometry x="630.5" y="1240" width="50" height="50" as="geometry" />
        </mxCell>
        <mxCell id="7RACUwOKpZIxq9s_oli3-15" value="&lt;font style=&quot;font-size: 16px;&quot;&gt;&lt;b&gt;Footter - Social Media&lt;/b&gt;&lt;/font&gt;" style="text;html=1;align=center;verticalAlign=middle;whiteSpace=wrap;rounded=0;" vertex="1" parent="1">
          <mxGeometry x="325.5" y="1250" width="200" height="30" as="geometry" />
        </mxCell>
        <mxCell id="7RACUwOKpZIxq9s_oli3-16" value="" style="verticalLabelPosition=bottom;shadow=0;dashed=0;align=center;html=1;verticalAlign=top;strokeWidth=1;shape=mxgraph.mockup.graphics.simpleIcon;strokeColor=#999999;" vertex="1" parent="1">
          <mxGeometry x="40.5" y="540" width="370" height="160" as="geometry" />
        </mxCell>
        <mxCell id="7RACUwOKpZIxq9s_oli3-17" value="Wireframe" style="text;html=1;align=center;verticalAlign=middle;whiteSpace=wrap;rounded=0;" vertex="1" parent="1">
          <mxGeometry x="60.5" y="1250" width="60" height="30" as="geometry" />
        </mxCell>
        <mxCell id="7RACUwOKpZIxq9s_oli3-18" value="" style="verticalLabelPosition=bottom;shadow=0;dashed=0;align=center;html=1;verticalAlign=top;strokeWidth=1;shape=mxgraph.mockup.graphics.simpleIcon;strokeColor=#999999;" vertex="1" parent="1">
          <mxGeometry x="10" y="120" width="830" height="390" as="geometry" />
        </mxCell>
        <mxCell id="7RACUwOKpZIxq9s_oli3-19" value="&lt;h1 style=&quot;margin-top: 0px;&quot;&gt;Your trip starts here!&lt;/h1&gt;" style="text;html=1;whiteSpace=wrap;overflow=hidden;rounded=0;" vertex="1" parent="1">
          <mxGeometry x="304" y="190" width="242" height="40" as="geometry" />
        </mxCell>
        <mxCell id="7RACUwOKpZIxq9s_oli3-20" value="Contact Us" style="strokeWidth=1;shadow=0;dashed=0;align=center;html=1;shape=mxgraph.mockup.buttons.button;strokeColor=#666666;fontColor=#ffffff;mainText=;buttonStyle=round;fontSize=17;fontStyle=1;fillColor=#008cff;whiteSpace=wrap;" vertex="1" parent="1">
          <mxGeometry x="350" y="290" width="150" height="50" as="geometry" />
        </mxCell>
        <mxCell id="7RACUwOKpZIxq9s_oli3-21" value="" style="verticalLabelPosition=bottom;shadow=0;dashed=0;align=center;html=1;verticalAlign=top;strokeWidth=1;shape=mxgraph.mockup.graphics.simpleIcon;strokeColor=#999999;" vertex="1" parent="1">
          <mxGeometry x="80.5" y="930" width="510" height="270" as="geometry" />
        </mxCell>
        <mxCell id="7RACUwOKpZIxq9s_oli3-22" value="" style="strokeWidth=1;shadow=0;dashed=0;align=center;html=1;shape=mxgraph.mockup.forms.rrect;rSize=0;strokeColor=#999999;fillColor=#ffffff;" vertex="1" parent="1">
          <mxGeometry x="580.5" y="965" width="200" height="190" as="geometry" />
        </mxCell>
        <mxCell id="7RACUwOKpZIxq9s_oli3-23" value="&lt;b&gt;&lt;font style=&quot;font-size: 17px;&quot;&gt;Newsletter&lt;/font&gt;&lt;/b&gt;" style="strokeWidth=1;shadow=0;dashed=0;align=center;html=1;shape=mxgraph.mockup.forms.anchor;fontSize=12;fontColor=#666666;align=left;resizeWidth=1;spacingLeft=0;" vertex="1" parent="7RACUwOKpZIxq9s_oli3-22">
          <mxGeometry width="100" height="20" relative="1" as="geometry">
            <mxPoint x="10" y="10" as="offset" />
          </mxGeometry>
        </mxCell>
        <mxCell id="7RACUwOKpZIxq9s_oli3-24" value="" style="shape=line;strokeColor=#ddeeff;strokeWidth=2;html=1;resizeWidth=1;" vertex="1" parent="7RACUwOKpZIxq9s_oli3-22">
          <mxGeometry width="180" height="10" relative="1" as="geometry">
            <mxPoint x="10" y="30" as="offset" />
          </mxGeometry>
        </mxCell>
        <mxCell id="7RACUwOKpZIxq9s_oli3-25" value="Name:" style="strokeWidth=1;shadow=0;dashed=0;align=center;html=1;shape=mxgraph.mockup.forms.anchor;fontSize=12;fontColor=#666666;align=left;resizeWidth=1;spacingLeft=0;" vertex="1" parent="7RACUwOKpZIxq9s_oli3-22">
          <mxGeometry width="100" height="20" relative="1" as="geometry">
            <mxPoint x="10" y="40" as="offset" />
          </mxGeometry>
        </mxCell>
        <mxCell id="7RACUwOKpZIxq9s_oli3-26" value="" style="strokeWidth=1;shadow=0;dashed=0;align=center;html=1;shape=mxgraph.mockup.forms.rrect;rSize=0;strokeColor=#999999;fontColor=#666666;align=left;spacingLeft=5;resizeWidth=1;" vertex="1" parent="7RACUwOKpZIxq9s_oli3-22">
          <mxGeometry width="150" height="25" relative="1" as="geometry">
            <mxPoint x="10" y="60" as="offset" />
          </mxGeometry>
        </mxCell>
        <mxCell id="7RACUwOKpZIxq9s_oli3-27" value="Email:" style="strokeWidth=1;shadow=0;dashed=0;align=center;html=1;shape=mxgraph.mockup.forms.anchor;fontSize=12;fontColor=#666666;align=left;resizeWidth=1;spacingLeft=0;" vertex="1" parent="7RACUwOKpZIxq9s_oli3-22">
          <mxGeometry width="100" height="20" relative="1" as="geometry">
            <mxPoint x="10" y="95" as="offset" />
          </mxGeometry>
        </mxCell>
        <mxCell id="7RACUwOKpZIxq9s_oli3-28" value="" style="strokeWidth=1;shadow=0;dashed=0;align=center;html=1;shape=mxgraph.mockup.forms.rrect;rSize=0;strokeColor=#999999;fontColor=#666666;align=left;spacingLeft=5;resizeWidth=1;" vertex="1" parent="7RACUwOKpZIxq9s_oli3-22">
          <mxGeometry width="150" height="25" relative="1" as="geometry">
            <mxPoint x="10" y="115" as="offset" />
          </mxGeometry>
        </mxCell>
        <mxCell id="7RACUwOKpZIxq9s_oli3-29" value="SIGN UP" style="strokeWidth=1;shadow=0;dashed=0;align=center;html=1;shape=mxgraph.mockup.forms.rrect;rSize=5;strokeColor=none;fontColor=#ffffff;fillColor=#66bbff;fontSize=16;fontStyle=1;" vertex="1" parent="7RACUwOKpZIxq9s_oli3-22">
          <mxGeometry y="1" width="80" height="30" relative="1" as="geometry">
            <mxPoint x="50" y="-40" as="offset" />
          </mxGeometry>
        </mxCell>
        <mxCell id="7RACUwOKpZIxq9s_oli3-30" value="" style="strokeWidth=1;shadow=0;dashed=0;align=center;html=1;shape=mxgraph.mockup.forms.anchor;fontSize=12;fontColor=#9999ff;align=left;spacingLeft=0;fontStyle=4;resizeWidth=1;" vertex="1" parent="7RACUwOKpZIxq9s_oli3-22">
          <mxGeometry y="1" width="150" height="20" relative="1" as="geometry">
            <mxPoint x="10" y="-110" as="offset" />
          </mxGeometry>
        </mxCell>
        <mxCell id="7RACUwOKpZIxq9s_oli3-31" value="&lt;h1 style=&quot;margin-top: 0px;&quot;&gt;Heading&lt;/h1&gt;&lt;p&gt;Lorem ipsum dolor sit amet, consectetur adipisicing elit, sed do eiusmod tempor incididunt ut labore et dolore magna aliqua.&lt;/p&gt;" style="text;html=1;whiteSpace=wrap;overflow=hidden;rounded=0;" vertex="1" parent="1">
          <mxGeometry x="441.5" y="540" width="370" height="160" as="geometry" />
        </mxCell>
        <mxCell id="7RACUwOKpZIxq9s_oli3-32" value="" style="verticalLabelPosition=bottom;shadow=0;dashed=0;align=center;html=1;verticalAlign=top;strokeWidth=1;shape=mxgraph.mockup.graphics.simpleIcon;strokeColor=#999999;" vertex="1" parent="1">
          <mxGeometry x="438.5" y="740" width="370" height="160" as="geometry" />
        </mxCell>
        <mxCell id="7RACUwOKpZIxq9s_oli3-33" value="&lt;h1 style=&quot;margin-top: 0px;&quot;&gt;Heading&lt;/h1&gt;&lt;p&gt;Lorem ipsum dolor sit amet, consectetur adipisicing elit, sed do eiusmod tempor incididunt ut labore et dolore magna aliqua.&lt;/p&gt;" style="text;html=1;whiteSpace=wrap;overflow=hidden;rounded=0;" vertex="1" parent="1">
          <mxGeometry x="40.5" y="744" width="370" height="160" as="geometry" />
        </mxCell>
      </root>
    </mxGraphModel>
  </diagram>
</mxfile>
